<svg width="14" height="14" viewBox="0 0 14 14" fill="none" xmlns="http://www.w3.org/2000/svg">
<path d="M3.99996 3.33335V0.666687M9.33329 3.33335V0.666687M3.33329 6.00002H9.99996M1.99996 12.6667H11.3333C11.6869 12.6667 12.0261 12.5262 12.2761 12.2762C12.5262 12.0261 12.6666 11.687 12.6666 11.3334V3.33335C12.6666 2.97973 12.5262 2.64059 12.2761 2.39054C12.0261 2.1405 11.6869 2.00002 11.3333 2.00002H1.99996C1.64634 2.00002 1.3072 2.1405 1.05715 2.39054C0.807102 2.64059 0.666626 2.97973 0.666626 3.33335V11.3334C0.666626 11.687 0.807102 12.0261 1.05715 12.2762C1.3072 12.5262 1.64634 12.6667 1.99996 12.6667Z" stroke="#4A3780" stroke-width="1.33333" stroke-linecap="round" stroke-linejoin="round"/>
</svg>
