<svg width="22" height="22" viewBox="0 0 14 14" fill="none" xmlns="http://www.w3.org/2000/svg">
  <path
    d="M9.51145 2.0718L10.5911 0.991498C10.8162 0.766427 11.1215 0.639984 11.4397 0.639984C11.758 0.639984 12.0633 0.766427 12.2884 0.991498C12.5134 1.21657 12.6399 1.52183 12.6399 1.84013C12.6399 2.15842 12.5134 2.46369 12.2884 2.68876L5.49231 9.48482C5.15396 9.82297 4.73671 10.0715 4.27824 10.208L2.55987 10.72L3.07186 9.00163C3.20836 8.54316 3.4569 8.12592 3.79505 7.78757L9.51145 2.0718ZM9.51145 2.0718L11.1998 3.7601M10.2398 8.16004V11.2C10.2398 11.5819 10.0881 11.9482 9.818 12.2182C9.54796 12.4883 9.18169 12.64 8.79978 12.64H2.07987C1.69797 12.64 1.3317 12.4883 1.06165 12.2182C0.791604 11.9482 0.639893 11.5819 0.639893 11.2V4.48009C0.639893 4.09818 0.791604 3.73192 1.06165 3.46187C1.3317 3.19182 1.69797 3.04011 2.07987 3.04011H5.11983"
    stroke="#4A3780" stroke-width="1.27998" stroke-linecap="round" stroke-linejoin="round" />
</svg>