<svg width="19" height="21" viewBox="0 0 19 21" fill="none" xmlns="http://www.w3.org/2000/svg">
<path d="M14.6429 4.94444C14.6429 6.12318 14.101 7.25365 13.1365 8.08714C12.1721 8.92064 10.864 9.38889 9.5 9.38889C8.13603 9.38889 6.82792 8.92064 5.86345 8.08714C4.89898 7.25365 4.35714 6.12318 4.35714 4.94444C4.35714 3.7657 4.89898 2.63524 5.86345 1.80175C6.82792 0.968252 8.13603 0.5 9.5 0.5C10.864 0.5 12.1721 0.968252 13.1365 1.80175C14.101 2.63524 14.6429 3.7657 14.6429 4.94444ZM9.5 12.7222C7.11305 12.7222 4.82387 13.5417 3.13604 15.0003C1.44821 16.4589 0.5 18.4372 0.5 20.5H18.5C18.5 18.4372 17.5518 16.4589 15.864 15.0003C14.1761 13.5417 11.8869 12.7222 9.5 12.7222Z" stroke="white" stroke-linecap="round" stroke-linejoin="round"/>
</svg>
