<svg width="14" height="14" viewBox="0 0 14 14" fill="none" xmlns="http://www.w3.org/2000/svg">
<path d="M11.9167 3.33335L11.2665 11.428C11.2396 11.7644 11.0702 12.0792 10.7926 12.3091C10.5149 12.5389 10.1496 12.6667 9.77025 12.6667H3.56325C3.18385 12.6667 2.81855 12.5389 2.54091 12.3091C2.26328 12.0792 2.09394 11.7644 2.067 11.428L1.41675 3.33335M5.16675 6.00002V10M8.16675 6.00002V10M8.91675 3.33335V1.33335C8.91675 1.15654 8.83773 0.986973 8.69708 0.861949C8.55643 0.736925 8.36566 0.666687 8.16675 0.666687H5.16675C4.96784 0.666687 4.77707 0.736925 4.63642 0.861949C4.49577 0.986973 4.41675 1.15654 4.41675 1.33335V3.33335M0.666748 3.33335H12.6667" stroke="#ED3535" stroke-width="1.33333" stroke-linecap="round" stroke-linejoin="round"/>
</svg>
