<svg width="76" height="76" viewBox="0 0 76 76" fill="none" xmlns="http://www.w3.org/2000/svg">
<path d="M9.38641 61.5276C18.0135 56.652 27.7573 54.0967 37.6667 54.1111C47.9445 54.1111 57.5933 56.8039 65.9471 61.5276M50.0001 29.4444C50.0001 32.7155 48.7007 35.8525 46.3877 38.1654C44.0748 40.4784 40.9378 41.7778 37.6667 41.7778C34.3957 41.7778 31.2587 40.4784 28.9458 38.1654C26.6328 35.8525 25.3334 32.7155 25.3334 29.4444C25.3334 26.1734 26.6328 23.0364 28.9458 20.7235C31.2587 18.4105 34.3957 17.1111 37.6667 17.1111C40.9378 17.1111 44.0748 18.4105 46.3877 20.7235C48.7007 23.0364 50.0001 26.1734 50.0001 29.4444ZM74.6667 37.6667C74.6667 42.5256 73.7097 47.3369 71.8503 51.826C69.9909 56.315 67.2655 60.3939 63.8297 63.8296C60.3939 67.2654 56.3151 69.9908 51.826 71.8502C47.337 73.7096 42.5257 74.6667 37.6667 74.6667C32.8078 74.6667 27.9965 73.7096 23.5075 71.8502C19.0184 69.9908 14.9396 67.2654 11.5038 63.8296C8.06803 60.3939 5.34263 56.315 3.4832 51.826C1.62378 47.3369 0.666748 42.5256 0.666748 37.6667C0.666748 27.8537 4.56495 18.4426 11.5038 11.5037C18.4426 4.56488 27.8537 0.666672 37.6667 0.666672C47.4798 0.666672 56.8909 4.56488 63.8297 11.5037C70.7685 18.4426 74.6667 27.8537 74.6667 37.6667Z" stroke="black" stroke-width="1.33333" stroke-linecap="round" stroke-linejoin="round"/>
</svg>
